<svg height="464pt" viewBox="0 0 464 464" width="464pt" xmlns="http://www.w3.org/2000/svg"><path d="m152 320h168v104h-168zm0 0" fill="#662b24"/><path d="m219.910156 463.449219c-1.207031-.105469-2.398437-.25-3.621094-.378907 1.207032.128907 2.40625.273438 3.621094.378907zm0 0" fill="#ffb531"/><path d="m207.59375 461.871094c-1.21875-.199219-2.441406-.390625-3.65625-.625 1.214844.234375 2.460938.425781 3.65625.625zm0 0" fill="#ffb531"/><g fill="#ffa912"><path d="m203.9375 461.246094c-3.875-.75-7.714844-1.597656-11.503906-2.671875 3.789062 1.058593 7.628906 1.921875 11.503906 2.671875zm0 0"/><path d="m216.289062 463.070312c-2.914062-.3125-5.8125-.714843-8.695312-1.199218 2.878906.492187 5.777344.890625 8.695312 1.199218zm0 0"/><path d="m232 464c-4.046875 0-8.078125-.222656-12.089844-.550781 4.011719.328125 8.042969.550781 12.089844.550781zm0 0"/></g><path d="m264.855469 393.296875c-34.523438 14.601563-74.539063 4.847656-98.472657-24l-12.277343-17.296875h-18.105469l-32 48 30.144531 26.792969c16.753907 14.894531 36.691407 25.765625 58.289063 31.78125 30.097656-14.066407 55.316406-36.796875 72.421875-65.277344zm0 0" fill="#ffb531"/><path d="m313.542969 352-15.941407 17.273438c-2.164062 2.578124-4.476562 5.023437-6.929687 7.328124-.398437.382813-.839844.710938-1.246094 1.078126-2.125 1.941406-4.347656 3.777343-6.65625 5.496093-.25.183594-.511719.34375-.800781.527344-2.554688 1.847656-5.210938 3.550781-7.953125 5.105469l-.136719.070312c-2.925781 1.652344-5.949218 3.125-9.054687 4.417969-17.109375 28.484375-42.328125 51.214844-72.433594 65.277344 3.792969 1.058593 7.632813 1.921875 11.503906 2.671875 1.21875.234375 2.402344.425781 3.65625.625 2.882813.492187 5.78125.890625 8.695313 1.199218 1.210937.128907 2.402344.273438 3.625.378907 4 .328125 8 .550781 12.089844.550781 36.074218 0 70.894531-13.238281 97.855468-37.207031l30.183594-26.792969-24-48zm0 0" fill="#ffa912"/><path d="m96 192h272v160h-272zm0 0" fill="#662b24"/><path d="m96 280h272v16h-272zm0 0" fill="#57221d"/><path d="m96 248h272v16h-272zm0 0" fill="#57221d"/><path d="m96 312h272v16h-272zm0 0" fill="#57221d"/><path d="m152 192h160v56h-160zm0 0" fill="#662b24"/><path d="m256 88h-48v-16c0-13.253906 10.746094-24 24-24s24 10.746094 24 24zm0 0" fill="#ffb531"/><path d="m344 176h-224l4.953125-18.398438c12.277344-45.601562 56.414063-77.601562 107.046875-77.601562s94.769531 32 107.046875 77.601562zm0 0" fill="#e04343"/><path d="m305.160156 232.894531c-7.488281 9.101563-18.5 14.582031-30.273437 15.074219-11.777344.488281-23.203125-4.058594-31.421875-12.503906-6.332032-6.335938-16.597656-6.335938-22.929688 0-8.027344 8.023437-18.910156 12.535156-30.261718 12.535156-12.238282.050781-23.824219-5.515625-31.433594-15.105469l-12.96875-14.757812-1.871094.214843v85.648438l24.847656 49.6875c4.382813 8.769531 13.347656 14.3125 23.152344 14.3125h80c9.804688 0 18.769531-5.542969 23.152344-14.3125l24.847656-49.6875v-85.648438l-1.871094-.214843zm0 0" fill="#e94f4f"/><path d="m318.128906 218.136719-12.96875 14.757812c-11.492187 14.148438-30.949218 19-47.734375 11.90625-5.496093 44.1875-21.460937 86.421875-46.5625 123.199219h61.136719c9.804688 0 18.769531-5.542969 23.152344-14.3125l24.847656-49.6875v-85.648438zm0 0" fill="#cf3a3a"/><path d="m232 280c-.859375-.003906-1.714844-.144531-2.527344-.414062l-24-8 5.054688-15.203126 21.472656 7.183594 21.472656-7.152344 5.054688 15.203126-24 8c-.816406.261718-1.667969.390624-2.527344.382812zm0 0" fill="#662b24"/><path d="m261.601562 327.800781c-19.636718-3.015625-39.617187-3.015625-59.25 0-4.402343.863281-8.960937-.226562-12.492187-2.992187-3.535156-2.765625-5.691406-6.929688-5.90625-11.410156.222656-7.398438 5.828125-13.523438 13.183594-14.398438l5.191406-.800781c19.632813-3.015625 39.613281-3.015625 59.246094 0l5.195312.800781c7.382813.855469 13.015625 7.003906 13.230469 14.433594-.226562 4.472656-2.386719 8.628906-5.917969 11.386718-3.53125 2.757813-8.085937 3.84375-12.480469 2.980469zm0 0" fill="#662b24"/><path d="m168 288c-2.121094 0-4.15625-.84375-5.65625-2.34375l-24-24c-3.03125-3.140625-2.988281-8.128906.097656-11.214844 3.085938-3.085937 8.074219-3.128906 11.214844-.097656l24 24c2.285156 2.289062 2.972656 5.730469 1.734375 8.71875s-4.15625 4.9375-7.390625 4.9375zm0 0" fill="#cf3a3a"/><path d="m296 288c-3.234375 0-6.152344-1.949219-7.390625-4.9375s-.550781-6.429688 1.734375-8.71875l24-24c3.140625-3.03125 8.128906-2.988281 11.214844.097656 3.085937 3.085938 3.128906 8.074219.097656 11.214844l-24 24c-1.5 1.5-3.535156 2.34375-5.65625 2.34375zm0 0" fill="#ba2727"/><path d="m68.6875 106.742188-4.6875-18.742188-64 64c15.425781 41.136719 45.839844 74.921875 85.136719 94.566406l23.128906 11.570313 11.734375-82.136719c-25.609375-15.367188-44.070312-40.28125-51.3125-69.257812zm0 0" fill="#e94f4f"/><path d="m68.6875 106.742188-4.6875-18.742188-64 64c15.425781 41.136719 45.839844 74.921875 85.136719 94.566406l23.128906 11.570313 11.734375-82.136719c-25.609375-15.367188-44.070312-40.28125-51.3125-69.257812zm0 0" fill="#e04343"/><path d="m108.265625 258.136719-23.128906-11.570313c-6.511719-3.316406-12.804688-7.042968-18.847657-11.152344l-5.144531 14.808594c-8.703125 25.007813-13.144531 51.300782-13.144531 77.777344l48 24zm0 0" fill="#cf3a3a"/><path d="m395.3125 106.742188 4.6875-18.742188 64 64c-15.425781 41.136719-45.839844 74.921875-85.136719 94.566406l-23.128906 11.570313-11.734375-82.136719c25.609375-15.367188 44.070312-40.28125 51.3125-69.257812zm0 0" fill="#e94f4f"/><path d="m355.734375 258.136719 23.128906-11.570313c6.511719-3.316406 12.804688-7.042968 18.847657-11.152344l5.144531 14.808594c8.703125 25.007813 13.144531 51.300782 13.144531 77.777344l-48 24zm0 0" fill="#cf3a3a"/><path d="m360 400 48.167969 3.703125c31.503906 2.425781 55.832031 28.699219 55.832031 60.296875h-232c36.074219 0 70.894531-13.238281 97.855469-37.207031zm0 0" fill="#e94f4f"/><path d="m429.480469 409.398438c-17.25 24.777343-68.449219 42.410156-93.480469 54.601562h128c-.003906-23.335938-13.441406-44.585938-34.519531-54.601562zm0 0" fill="#cf3a3a"/><path d="m390.359375 402.335938-23.039063 61.664062h17.070313l22.570313-60.382812zm0 0" fill="#ba2727"/><path d="m439.335938 415.289062c-4.394532-3.246093-9.207032-5.878906-14.3125-7.824218l-17.703126 56.535156h16.757813zm0 0" fill="#ba2727"/><path d="m360 400-12.472656 11.089844-18.933594 52.910156h16.992188l22.671874-63.367188zm0 0" fill="#ba2727"/><path d="m323.847656 218.808594-68.199218-8c-15.710938-1.847656-31.585938-1.847656-47.296876 0l-68.199218 8c-8.761719 1.03125-17.378906-2.828125-22.449219-10.042969-5.066406-7.21875-5.765625-16.636719-1.824219-24.527344l4.121094-8.238281h224l4.121094 8.238281c3.941406 7.890625 3.242187 17.308594-1.824219 24.527344-5.070313 7.214844-13.6875 11.074219-22.449219 10.042969zm0 0" fill="#ffb531"/><path d="m348.121094 184.238281-4.121094-8.238281h-72.734375c-12.699219 12.363281-26.480469 23.558594-41.1875 33.449219 8.554687-.097657 17.105469.347656 25.601563 1.335937l68.199218 8c8.75 1.011719 17.347656-2.847656 22.40625-10.054687 5.058594-7.210938 5.761719-16.609375 1.835938-24.492188zm0 0" fill="#ffa912"/><path d="m317.550781 402.105469 28-28.410157-7.542969-15.144531-31.808593 32.273438-.222657.199219-16-17.382813c-3.824218 3.753906-7.992187 7.132813-12.457031 10.09375l16.214844 17.601563c-16.289063 12.035156-35.660156 19.195312-55.863281 20.648437v-24.121094c-2.648438.25-5.3125.433594-8 .433594s-5.351563-.199219-8-.457031v24.128906c-20.199219-1.511719-39.550782-8.726562-55.816406-20.800781l16.25-17.601563c-4.457032-2.976562-8.617188-6.371094-12.433594-10.132812l-16 17.359375c-.070313-.074219-.152344-.128907-.214844-.199219l-27.953125-28-9.070313 13.597656 25.695313 25.761719c4.714844 4.683594 9.796875 8.980469 15.199219 12.855469l-14.617188 19.015625c4.339844 3.140625 8.84375 6.046875 13.496094 8.703125l14.648438-19.054688c15.667968 8.496094 32.992187 13.480469 50.777343 14.617188v23.894531c2.664063.144531 5.320313.367187 8 .375 2.679688.007813 5.335938-.214844 8-.359375v-23.886719c17.839844-1.09375 35.226563-6.0625 50.953125-14.5625l14.398438 19.203125c4.660156-2.640625 9.175781-5.527344 13.519531-8.65625l-14.398437-19.203125c5.414062-3.847656 10.511718-8.128906 15.246093-12.789062zm0 0" fill="#f7a116"/><path d="m104 400-48.167969 3.703125c-31.503906 2.425781-55.832031 28.699219-55.832031 60.296875h232c-36.074219 0-70.894531-13.238281-97.855469-37.207031zm0 0" fill="#e94f4f"/><path d="m134.144531 426.792969-.800781-.695313c-20.738281 18.96875-46.164062 32.054688-73.65625 37.902344h172.3125c-36.074219 0-70.894531-13.238281-97.855469-37.207031zm0 0" fill="#cf3a3a"/><path d="m73.640625 402.335938 23.039063 61.664062h-17.070313l-22.570313-60.382812zm0 0" fill="#ba2727"/><path d="m24.664062 415.289062c4.394532-3.246093 9.207032-5.878906 14.3125-7.824218l17.703126 56.535156h-16.757813zm0 0" fill="#ba2727"/><path d="m104 400 12.472656 11.089844 18.933594 52.910156h-16.992188l-22.671874-63.367188zm0 0" fill="#ba2727"/><path d="m339.046875 157.601562c-10.851563-37.304687-41.136719-65.753906-79.046875-74.25-25.015625 55.785157-82.238281 81.449219-120 92.648438h204zm0 0" fill="#cf3a3a"/><path d="m272 40c8.835938 0 16 7.164062 16 16v8c0 30.929688-25.070312 56-56 56s-56-25.070312-56-56v-8c0-8.835938 7.164062-16 16-16 0-22.089844-17.910156-40-40-40h-40c15.367188 15.367188 24 36.210938 24 57.945312v14.054688c0 53.019531 42.980469 96 96 96s96-42.980469 96-96v-14.054688c0-21.734374 8.632812-42.578124 24-57.945312h-40c-22.089844 0-40 17.910156-40 40zm0 0" fill="#ffb531"/><path d="m94.191406 154.695312c-8.5625 26.710938-28.550781 48.230469-54.550781 58.746094 13.265625 13.4375 28.632813 24.625 45.496094 33.125l23.128906 11.570313 11.734375-82.136719c-9.617188-5.773438-18.316406-12.953125-25.808594-21.304688zm0 0" fill="#cf3a3a"/><path d="m464 152-64-64-4.6875 18.742188c-1.675781 6.621093-3.957031 13.074218-6.808594 19.28125 14.683594 30.132812 23.707032 62.703124 26.617188 96.097656 21.871094-18.945313 38.671875-43.046875 48.878906-70.121094zm0 0" fill="#cf3a3a"/><path d="m405.023438 257.398438c-.742188-2.398438-1.34375-4.796876-2.167969-7.199219l-5.144531-14.808594c-6.042969 4.109375-12.335938 7.835937-18.847657 11.152344l-22.863281 11.449219c16.242188 2.796874 32.855469 2.597656 49.023438-.59375zm0 0" fill="#ba2727"/><path d="m312 0c-22.089844 0-40 17.910156-40 40h.296875c1.050781-3.996094 1.835937-8.058594 2.34375-12.160156-.507813 4.101562-1.292969 8.164062-2.34375 12.160156 8.71875.160156 15.703125 7.277344 15.703125 16v8c.085938 16.074219-6.777344 31.40625-18.828125 42.046875-12.050781 10.644531-28.109375 15.558594-44.050781 13.488281-13.550782 13-28.816406 24.082032-45.378906 32.929688 29.503906 19.207031 67.152343 20.710937 98.09375 3.917968 30.9375-16.789062 50.195312-49.179687 50.164062-84.382812v-14.054688c0-21.734374 8.632812-42.578124 24-57.945312zm0 0" fill="#ffa912"/></svg>